<mxfile host="Electron" agent="Mozilla/5.0 (Macintosh; Intel Mac OS X 10_15_7) AppleWebKit/537.36 (KHTML, like Gecko) draw.io/26.2.15 Chrome/134.0.6998.205 Electron/35.2.1 Safari/537.36" version="26.2.15">
  <diagram name="Page-1" id="GqOwYjvRHA0eZzKJuxxE">
    <mxGraphModel dx="851" dy="609" grid="1" gridSize="10" guides="1" tooltips="1" connect="1" arrows="1" fold="1" page="1" pageScale="1" pageWidth="827" pageHeight="1169" math="0" shadow="0">
      <root>
        <mxCell id="0" />
        <mxCell id="1" parent="0" />
        <mxCell id="aUm_TQJ9ZBti03LkIsbj-28" value="User" style="shape=table;startSize=30;container=1;collapsible=1;childLayout=tableLayout;fixedRows=1;rowLines=0;fontStyle=1;align=center;resizeLast=1;html=1;" parent="1" vertex="1">
          <mxGeometry x="480" y="320" width="262" height="180" as="geometry" />
        </mxCell>
        <mxCell id="aUm_TQJ9ZBti03LkIsbj-29" value="" style="shape=tableRow;horizontal=0;startSize=0;swimlaneHead=0;swimlaneBody=0;fillColor=none;collapsible=0;dropTarget=0;points=[[0,0.5],[1,0.5]];portConstraint=eastwest;top=0;left=0;right=0;bottom=1;" parent="aUm_TQJ9ZBti03LkIsbj-28" vertex="1">
          <mxGeometry y="30" width="262" height="30" as="geometry" />
        </mxCell>
        <mxCell id="aUm_TQJ9ZBti03LkIsbj-30" value="PK" style="shape=partialRectangle;connectable=0;fillColor=none;top=0;left=0;bottom=0;right=0;fontStyle=1;overflow=hidden;whiteSpace=wrap;html=1;" parent="aUm_TQJ9ZBti03LkIsbj-29" vertex="1">
          <mxGeometry width="28.299999999999983" height="30" as="geometry">
            <mxRectangle width="28.299999999999983" height="30" as="alternateBounds" />
          </mxGeometry>
        </mxCell>
        <mxCell id="aUm_TQJ9ZBti03LkIsbj-31" value="userId: int" style="shape=partialRectangle;connectable=0;fillColor=none;top=0;left=0;bottom=0;right=0;align=left;spacingLeft=6;fontStyle=5;overflow=hidden;whiteSpace=wrap;html=1;" parent="aUm_TQJ9ZBti03LkIsbj-29" vertex="1">
          <mxGeometry x="28.299999999999983" width="233.70000000000002" height="30" as="geometry">
            <mxRectangle width="233.70000000000002" height="30" as="alternateBounds" />
          </mxGeometry>
        </mxCell>
        <mxCell id="aUm_TQJ9ZBti03LkIsbj-32" value="" style="shape=tableRow;horizontal=0;startSize=0;swimlaneHead=0;swimlaneBody=0;fillColor=none;collapsible=0;dropTarget=0;points=[[0,0.5],[1,0.5]];portConstraint=eastwest;top=0;left=0;right=0;bottom=0;" parent="aUm_TQJ9ZBti03LkIsbj-28" vertex="1">
          <mxGeometry y="60" width="262" height="30" as="geometry" />
        </mxCell>
        <mxCell id="aUm_TQJ9ZBti03LkIsbj-33" value="" style="shape=partialRectangle;connectable=0;fillColor=none;top=0;left=0;bottom=0;right=0;editable=1;overflow=hidden;whiteSpace=wrap;html=1;" parent="aUm_TQJ9ZBti03LkIsbj-32" vertex="1">
          <mxGeometry width="28.299999999999983" height="30" as="geometry">
            <mxRectangle width="28.299999999999983" height="30" as="alternateBounds" />
          </mxGeometry>
        </mxCell>
        <mxCell id="aUm_TQJ9ZBti03LkIsbj-34" value="name: varchar(255)" style="shape=partialRectangle;connectable=0;fillColor=none;top=0;left=0;bottom=0;right=0;align=left;spacingLeft=6;overflow=hidden;whiteSpace=wrap;html=1;" parent="aUm_TQJ9ZBti03LkIsbj-32" vertex="1">
          <mxGeometry x="28.299999999999983" width="233.70000000000002" height="30" as="geometry">
            <mxRectangle width="233.70000000000002" height="30" as="alternateBounds" />
          </mxGeometry>
        </mxCell>
        <mxCell id="aUm_TQJ9ZBti03LkIsbj-35" value="" style="shape=tableRow;horizontal=0;startSize=0;swimlaneHead=0;swimlaneBody=0;fillColor=none;collapsible=0;dropTarget=0;points=[[0,0.5],[1,0.5]];portConstraint=eastwest;top=0;left=0;right=0;bottom=0;" parent="aUm_TQJ9ZBti03LkIsbj-28" vertex="1">
          <mxGeometry y="90" width="262" height="30" as="geometry" />
        </mxCell>
        <mxCell id="aUm_TQJ9ZBti03LkIsbj-36" value="" style="shape=partialRectangle;connectable=0;fillColor=none;top=0;left=0;bottom=0;right=0;editable=1;overflow=hidden;whiteSpace=wrap;html=1;" parent="aUm_TQJ9ZBti03LkIsbj-35" vertex="1">
          <mxGeometry width="28.299999999999983" height="30" as="geometry">
            <mxRectangle width="28.299999999999983" height="30" as="alternateBounds" />
          </mxGeometry>
        </mxCell>
        <mxCell id="aUm_TQJ9ZBti03LkIsbj-37" value="passwordHash: varchar(255)" style="shape=partialRectangle;connectable=0;fillColor=none;top=0;left=0;bottom=0;right=0;align=left;spacingLeft=6;overflow=hidden;whiteSpace=wrap;html=1;" parent="aUm_TQJ9ZBti03LkIsbj-35" vertex="1">
          <mxGeometry x="28.299999999999983" width="233.70000000000002" height="30" as="geometry">
            <mxRectangle width="233.70000000000002" height="30" as="alternateBounds" />
          </mxGeometry>
        </mxCell>
        <mxCell id="aUm_TQJ9ZBti03LkIsbj-38" value="" style="shape=tableRow;horizontal=0;startSize=0;swimlaneHead=0;swimlaneBody=0;fillColor=none;collapsible=0;dropTarget=0;points=[[0,0.5],[1,0.5]];portConstraint=eastwest;top=0;left=0;right=0;bottom=0;" parent="aUm_TQJ9ZBti03LkIsbj-28" vertex="1">
          <mxGeometry y="120" width="262" height="30" as="geometry" />
        </mxCell>
        <mxCell id="aUm_TQJ9ZBti03LkIsbj-39" value="" style="shape=partialRectangle;connectable=0;fillColor=none;top=0;left=0;bottom=0;right=0;editable=1;overflow=hidden;whiteSpace=wrap;html=1;" parent="aUm_TQJ9ZBti03LkIsbj-38" vertex="1">
          <mxGeometry width="28.299999999999983" height="30" as="geometry">
            <mxRectangle width="28.299999999999983" height="30" as="alternateBounds" />
          </mxGeometry>
        </mxCell>
        <mxCell id="aUm_TQJ9ZBti03LkIsbj-40" value="email: varchar(255)" style="shape=partialRectangle;connectable=0;fillColor=none;top=0;left=0;bottom=0;right=0;align=left;spacingLeft=6;overflow=hidden;whiteSpace=wrap;html=1;" parent="aUm_TQJ9ZBti03LkIsbj-38" vertex="1">
          <mxGeometry x="28.299999999999983" width="233.70000000000002" height="30" as="geometry">
            <mxRectangle width="233.70000000000002" height="30" as="alternateBounds" />
          </mxGeometry>
        </mxCell>
        <mxCell id="aUm_TQJ9ZBti03LkIsbj-42" value="" style="shape=tableRow;horizontal=0;startSize=0;swimlaneHead=0;swimlaneBody=0;fillColor=none;collapsible=0;dropTarget=0;points=[[0,0.5],[1,0.5]];portConstraint=eastwest;top=0;left=0;right=0;bottom=0;" parent="aUm_TQJ9ZBti03LkIsbj-28" vertex="1">
          <mxGeometry y="150" width="262" height="30" as="geometry" />
        </mxCell>
        <mxCell id="aUm_TQJ9ZBti03LkIsbj-43" value="" style="shape=partialRectangle;connectable=0;fillColor=none;top=0;left=0;bottom=0;right=0;editable=1;overflow=hidden;whiteSpace=wrap;html=1;" parent="aUm_TQJ9ZBti03LkIsbj-42" vertex="1">
          <mxGeometry width="28.299999999999983" height="30" as="geometry">
            <mxRectangle width="28.299999999999983" height="30" as="alternateBounds" />
          </mxGeometry>
        </mxCell>
        <mxCell id="aUm_TQJ9ZBti03LkIsbj-44" value="permission: varchar(255)" style="shape=partialRectangle;connectable=0;fillColor=none;top=0;left=0;bottom=0;right=0;align=left;spacingLeft=6;overflow=hidden;whiteSpace=wrap;html=1;" parent="aUm_TQJ9ZBti03LkIsbj-42" vertex="1">
          <mxGeometry x="28.299999999999983" width="233.70000000000002" height="30" as="geometry">
            <mxRectangle width="233.70000000000002" height="30" as="alternateBounds" />
          </mxGeometry>
        </mxCell>
        <mxCell id="aUm_TQJ9ZBti03LkIsbj-48" value="rebootRequest" style="shape=table;startSize=30;container=1;collapsible=1;childLayout=tableLayout;fixedRows=1;rowLines=0;fontStyle=1;align=center;resizeLast=1;html=1;" parent="1" vertex="1">
          <mxGeometry x="137" y="545" width="262" height="240" as="geometry" />
        </mxCell>
        <mxCell id="aUm_TQJ9ZBti03LkIsbj-49" value="" style="shape=tableRow;horizontal=0;startSize=0;swimlaneHead=0;swimlaneBody=0;fillColor=none;collapsible=0;dropTarget=0;points=[[0,0.5],[1,0.5]];portConstraint=eastwest;top=0;left=0;right=0;bottom=1;" parent="aUm_TQJ9ZBti03LkIsbj-48" vertex="1">
          <mxGeometry y="30" width="262" height="30" as="geometry" />
        </mxCell>
        <mxCell id="aUm_TQJ9ZBti03LkIsbj-50" value="PK" style="shape=partialRectangle;connectable=0;fillColor=none;top=0;left=0;bottom=0;right=0;fontStyle=1;overflow=hidden;whiteSpace=wrap;html=1;" parent="aUm_TQJ9ZBti03LkIsbj-49" vertex="1">
          <mxGeometry width="28.299999999999983" height="30" as="geometry">
            <mxRectangle width="28.299999999999983" height="30" as="alternateBounds" />
          </mxGeometry>
        </mxCell>
        <mxCell id="aUm_TQJ9ZBti03LkIsbj-51" value="rebootId: int" style="shape=partialRectangle;connectable=0;fillColor=none;top=0;left=0;bottom=0;right=0;align=left;spacingLeft=6;fontStyle=5;overflow=hidden;whiteSpace=wrap;html=1;" parent="aUm_TQJ9ZBti03LkIsbj-49" vertex="1">
          <mxGeometry x="28.299999999999983" width="233.70000000000002" height="30" as="geometry">
            <mxRectangle width="233.70000000000002" height="30" as="alternateBounds" />
          </mxGeometry>
        </mxCell>
        <mxCell id="aUm_TQJ9ZBti03LkIsbj-52" value="" style="shape=tableRow;horizontal=0;startSize=0;swimlaneHead=0;swimlaneBody=0;fillColor=none;collapsible=0;dropTarget=0;points=[[0,0.5],[1,0.5]];portConstraint=eastwest;top=0;left=0;right=0;bottom=0;" parent="aUm_TQJ9ZBti03LkIsbj-48" vertex="1">
          <mxGeometry y="60" width="262" height="30" as="geometry" />
        </mxCell>
        <mxCell id="aUm_TQJ9ZBti03LkIsbj-53" value="FK" style="shape=partialRectangle;connectable=0;fillColor=none;top=0;left=0;bottom=0;right=0;editable=1;overflow=hidden;whiteSpace=wrap;html=1;" parent="aUm_TQJ9ZBti03LkIsbj-52" vertex="1">
          <mxGeometry width="28.299999999999983" height="30" as="geometry">
            <mxRectangle width="28.299999999999983" height="30" as="alternateBounds" />
          </mxGeometry>
        </mxCell>
        <mxCell id="aUm_TQJ9ZBti03LkIsbj-54" value="userId: int" style="shape=partialRectangle;connectable=0;fillColor=none;top=0;left=0;bottom=0;right=0;align=left;spacingLeft=6;overflow=hidden;whiteSpace=wrap;html=1;" parent="aUm_TQJ9ZBti03LkIsbj-52" vertex="1">
          <mxGeometry x="28.299999999999983" width="233.70000000000002" height="30" as="geometry">
            <mxRectangle width="233.70000000000002" height="30" as="alternateBounds" />
          </mxGeometry>
        </mxCell>
        <mxCell id="aUm_TQJ9ZBti03LkIsbj-55" value="" style="shape=tableRow;horizontal=0;startSize=0;swimlaneHead=0;swimlaneBody=0;fillColor=none;collapsible=0;dropTarget=0;points=[[0,0.5],[1,0.5]];portConstraint=eastwest;top=0;left=0;right=0;bottom=0;" parent="aUm_TQJ9ZBti03LkIsbj-48" vertex="1">
          <mxGeometry y="90" width="262" height="30" as="geometry" />
        </mxCell>
        <mxCell id="aUm_TQJ9ZBti03LkIsbj-56" value="FK" style="shape=partialRectangle;connectable=0;fillColor=none;top=0;left=0;bottom=0;right=0;editable=1;overflow=hidden;whiteSpace=wrap;html=1;" parent="aUm_TQJ9ZBti03LkIsbj-55" vertex="1">
          <mxGeometry width="28.299999999999983" height="30" as="geometry">
            <mxRectangle width="28.299999999999983" height="30" as="alternateBounds" />
          </mxGeometry>
        </mxCell>
        <mxCell id="aUm_TQJ9ZBti03LkIsbj-57" value="nodeId: int" style="shape=partialRectangle;connectable=0;fillColor=none;top=0;left=0;bottom=0;right=0;align=left;spacingLeft=6;overflow=hidden;whiteSpace=wrap;html=1;" parent="aUm_TQJ9ZBti03LkIsbj-55" vertex="1">
          <mxGeometry x="28.299999999999983" width="233.70000000000002" height="30" as="geometry">
            <mxRectangle width="233.70000000000002" height="30" as="alternateBounds" />
          </mxGeometry>
        </mxCell>
        <mxCell id="aUm_TQJ9ZBti03LkIsbj-58" value="" style="shape=tableRow;horizontal=0;startSize=0;swimlaneHead=0;swimlaneBody=0;fillColor=none;collapsible=0;dropTarget=0;points=[[0,0.5],[1,0.5]];portConstraint=eastwest;top=0;left=0;right=0;bottom=0;" parent="aUm_TQJ9ZBti03LkIsbj-48" vertex="1">
          <mxGeometry y="120" width="262" height="30" as="geometry" />
        </mxCell>
        <mxCell id="aUm_TQJ9ZBti03LkIsbj-59" value="" style="shape=partialRectangle;connectable=0;fillColor=none;top=0;left=0;bottom=0;right=0;editable=1;overflow=hidden;whiteSpace=wrap;html=1;" parent="aUm_TQJ9ZBti03LkIsbj-58" vertex="1">
          <mxGeometry width="28.299999999999983" height="30" as="geometry">
            <mxRectangle width="28.299999999999983" height="30" as="alternateBounds" />
          </mxGeometry>
        </mxCell>
        <mxCell id="aUm_TQJ9ZBti03LkIsbj-60" value="requestedAt: timestamp" style="shape=partialRectangle;connectable=0;fillColor=none;top=0;left=0;bottom=0;right=0;align=left;spacingLeft=6;overflow=hidden;whiteSpace=wrap;html=1;" parent="aUm_TQJ9ZBti03LkIsbj-58" vertex="1">
          <mxGeometry x="28.299999999999983" width="233.70000000000002" height="30" as="geometry">
            <mxRectangle width="233.70000000000002" height="30" as="alternateBounds" />
          </mxGeometry>
        </mxCell>
        <mxCell id="aUm_TQJ9ZBti03LkIsbj-61" value="" style="shape=tableRow;horizontal=0;startSize=0;swimlaneHead=0;swimlaneBody=0;fillColor=none;collapsible=0;dropTarget=0;points=[[0,0.5],[1,0.5]];portConstraint=eastwest;top=0;left=0;right=0;bottom=0;" parent="aUm_TQJ9ZBti03LkIsbj-48" vertex="1">
          <mxGeometry y="150" width="262" height="30" as="geometry" />
        </mxCell>
        <mxCell id="aUm_TQJ9ZBti03LkIsbj-62" value="" style="shape=partialRectangle;connectable=0;fillColor=none;top=0;left=0;bottom=0;right=0;editable=1;overflow=hidden;whiteSpace=wrap;html=1;" parent="aUm_TQJ9ZBti03LkIsbj-61" vertex="1">
          <mxGeometry width="28.299999999999983" height="30" as="geometry">
            <mxRectangle width="28.299999999999983" height="30" as="alternateBounds" />
          </mxGeometry>
        </mxCell>
        <mxCell id="aUm_TQJ9ZBti03LkIsbj-63" value="reason: varchar(255)" style="shape=partialRectangle;connectable=0;fillColor=none;top=0;left=0;bottom=0;right=0;align=left;spacingLeft=6;overflow=hidden;whiteSpace=wrap;html=1;" parent="aUm_TQJ9ZBti03LkIsbj-61" vertex="1">
          <mxGeometry x="28.299999999999983" width="233.70000000000002" height="30" as="geometry">
            <mxRectangle width="233.70000000000002" height="30" as="alternateBounds" />
          </mxGeometry>
        </mxCell>
        <mxCell id="aUm_TQJ9ZBti03LkIsbj-64" value="" style="shape=tableRow;horizontal=0;startSize=0;swimlaneHead=0;swimlaneBody=0;fillColor=none;collapsible=0;dropTarget=0;points=[[0,0.5],[1,0.5]];portConstraint=eastwest;top=0;left=0;right=0;bottom=0;" parent="aUm_TQJ9ZBti03LkIsbj-48" vertex="1">
          <mxGeometry y="180" width="262" height="30" as="geometry" />
        </mxCell>
        <mxCell id="aUm_TQJ9ZBti03LkIsbj-65" value="" style="shape=partialRectangle;connectable=0;fillColor=none;top=0;left=0;bottom=0;right=0;editable=1;overflow=hidden;whiteSpace=wrap;html=1;" parent="aUm_TQJ9ZBti03LkIsbj-64" vertex="1">
          <mxGeometry width="28.299999999999983" height="30" as="geometry">
            <mxRectangle width="28.299999999999983" height="30" as="alternateBounds" />
          </mxGeometry>
        </mxCell>
        <mxCell id="aUm_TQJ9ZBti03LkIsbj-66" value="status: varchar(255)" style="shape=partialRectangle;connectable=0;fillColor=none;top=0;left=0;bottom=0;right=0;align=left;spacingLeft=6;overflow=hidden;whiteSpace=wrap;html=1;" parent="aUm_TQJ9ZBti03LkIsbj-64" vertex="1">
          <mxGeometry x="28.299999999999983" width="233.70000000000002" height="30" as="geometry">
            <mxRectangle width="233.70000000000002" height="30" as="alternateBounds" />
          </mxGeometry>
        </mxCell>
        <mxCell id="aUm_TQJ9ZBti03LkIsbj-67" value="" style="shape=tableRow;horizontal=0;startSize=0;swimlaneHead=0;swimlaneBody=0;fillColor=none;collapsible=0;dropTarget=0;points=[[0,0.5],[1,0.5]];portConstraint=eastwest;top=0;left=0;right=0;bottom=0;" parent="aUm_TQJ9ZBti03LkIsbj-48" vertex="1">
          <mxGeometry y="210" width="262" height="30" as="geometry" />
        </mxCell>
        <mxCell id="aUm_TQJ9ZBti03LkIsbj-68" value="" style="shape=partialRectangle;connectable=0;fillColor=none;top=0;left=0;bottom=0;right=0;editable=1;overflow=hidden;whiteSpace=wrap;html=1;" parent="aUm_TQJ9ZBti03LkIsbj-67" vertex="1">
          <mxGeometry width="28.299999999999983" height="30" as="geometry">
            <mxRectangle width="28.299999999999983" height="30" as="alternateBounds" />
          </mxGeometry>
        </mxCell>
        <mxCell id="aUm_TQJ9ZBti03LkIsbj-69" value="apiResponse: varchar(255)" style="shape=partialRectangle;connectable=0;fillColor=none;top=0;left=0;bottom=0;right=0;align=left;spacingLeft=6;overflow=hidden;whiteSpace=wrap;html=1;" parent="aUm_TQJ9ZBti03LkIsbj-67" vertex="1">
          <mxGeometry x="28.299999999999983" width="233.70000000000002" height="30" as="geometry">
            <mxRectangle width="233.70000000000002" height="30" as="alternateBounds" />
          </mxGeometry>
        </mxCell>
        <mxCell id="aUm_TQJ9ZBti03LkIsbj-70" value="node" style="shape=table;startSize=30;container=1;collapsible=1;childLayout=tableLayout;fixedRows=1;rowLines=0;fontStyle=1;align=center;resizeLast=1;html=1;" parent="1" vertex="1">
          <mxGeometry x="120" y="39" width="262" height="210" as="geometry" />
        </mxCell>
        <mxCell id="aUm_TQJ9ZBti03LkIsbj-71" value="" style="shape=tableRow;horizontal=0;startSize=0;swimlaneHead=0;swimlaneBody=0;fillColor=none;collapsible=0;dropTarget=0;points=[[0,0.5],[1,0.5]];portConstraint=eastwest;top=0;left=0;right=0;bottom=1;" parent="aUm_TQJ9ZBti03LkIsbj-70" vertex="1">
          <mxGeometry y="30" width="262" height="30" as="geometry" />
        </mxCell>
        <mxCell id="aUm_TQJ9ZBti03LkIsbj-72" value="PK" style="shape=partialRectangle;connectable=0;fillColor=none;top=0;left=0;bottom=0;right=0;fontStyle=1;overflow=hidden;whiteSpace=wrap;html=1;" parent="aUm_TQJ9ZBti03LkIsbj-71" vertex="1">
          <mxGeometry width="28.299999999999983" height="30" as="geometry">
            <mxRectangle width="28.299999999999983" height="30" as="alternateBounds" />
          </mxGeometry>
        </mxCell>
        <mxCell id="aUm_TQJ9ZBti03LkIsbj-73" value="nodeId: int" style="shape=partialRectangle;connectable=0;fillColor=none;top=0;left=0;bottom=0;right=0;align=left;spacingLeft=6;fontStyle=5;overflow=hidden;whiteSpace=wrap;html=1;" parent="aUm_TQJ9ZBti03LkIsbj-71" vertex="1">
          <mxGeometry x="28.299999999999983" width="233.70000000000002" height="30" as="geometry">
            <mxRectangle width="233.70000000000002" height="30" as="alternateBounds" />
          </mxGeometry>
        </mxCell>
        <mxCell id="aUm_TQJ9ZBti03LkIsbj-74" value="" style="shape=tableRow;horizontal=0;startSize=0;swimlaneHead=0;swimlaneBody=0;fillColor=none;collapsible=0;dropTarget=0;points=[[0,0.5],[1,0.5]];portConstraint=eastwest;top=0;left=0;right=0;bottom=0;" parent="aUm_TQJ9ZBti03LkIsbj-70" vertex="1">
          <mxGeometry y="60" width="262" height="30" as="geometry" />
        </mxCell>
        <mxCell id="aUm_TQJ9ZBti03LkIsbj-75" value="FK" style="shape=partialRectangle;connectable=0;fillColor=none;top=0;left=0;bottom=0;right=0;editable=1;overflow=hidden;whiteSpace=wrap;html=1;" parent="aUm_TQJ9ZBti03LkIsbj-74" vertex="1">
          <mxGeometry width="28.299999999999983" height="30" as="geometry">
            <mxRectangle width="28.299999999999983" height="30" as="alternateBounds" />
          </mxGeometry>
        </mxCell>
        <mxCell id="aUm_TQJ9ZBti03LkIsbj-76" value="rebootId: int" style="shape=partialRectangle;connectable=0;fillColor=none;top=0;left=0;bottom=0;right=0;align=left;spacingLeft=6;overflow=hidden;whiteSpace=wrap;html=1;" parent="aUm_TQJ9ZBti03LkIsbj-74" vertex="1">
          <mxGeometry x="28.299999999999983" width="233.70000000000002" height="30" as="geometry">
            <mxRectangle width="233.70000000000002" height="30" as="alternateBounds" />
          </mxGeometry>
        </mxCell>
        <mxCell id="aUm_TQJ9ZBti03LkIsbj-77" value="" style="shape=tableRow;horizontal=0;startSize=0;swimlaneHead=0;swimlaneBody=0;fillColor=none;collapsible=0;dropTarget=0;points=[[0,0.5],[1,0.5]];portConstraint=eastwest;top=0;left=0;right=0;bottom=0;" parent="aUm_TQJ9ZBti03LkIsbj-70" vertex="1">
          <mxGeometry y="90" width="262" height="30" as="geometry" />
        </mxCell>
        <mxCell id="aUm_TQJ9ZBti03LkIsbj-78" value="" style="shape=partialRectangle;connectable=0;fillColor=none;top=0;left=0;bottom=0;right=0;editable=1;overflow=hidden;whiteSpace=wrap;html=1;" parent="aUm_TQJ9ZBti03LkIsbj-77" vertex="1">
          <mxGeometry width="28.299999999999983" height="30" as="geometry">
            <mxRectangle width="28.299999999999983" height="30" as="alternateBounds" />
          </mxGeometry>
        </mxCell>
        <mxCell id="aUm_TQJ9ZBti03LkIsbj-79" value="fqdn: int" style="shape=partialRectangle;connectable=0;fillColor=none;top=0;left=0;bottom=0;right=0;align=left;spacingLeft=6;overflow=hidden;whiteSpace=wrap;html=1;" parent="aUm_TQJ9ZBti03LkIsbj-77" vertex="1">
          <mxGeometry x="28.299999999999983" width="233.70000000000002" height="30" as="geometry">
            <mxRectangle width="233.70000000000002" height="30" as="alternateBounds" />
          </mxGeometry>
        </mxCell>
        <mxCell id="aUm_TQJ9ZBti03LkIsbj-80" value="" style="shape=tableRow;horizontal=0;startSize=0;swimlaneHead=0;swimlaneBody=0;fillColor=none;collapsible=0;dropTarget=0;points=[[0,0.5],[1,0.5]];portConstraint=eastwest;top=0;left=0;right=0;bottom=0;" parent="aUm_TQJ9ZBti03LkIsbj-70" vertex="1">
          <mxGeometry y="120" width="262" height="30" as="geometry" />
        </mxCell>
        <mxCell id="aUm_TQJ9ZBti03LkIsbj-81" value="" style="shape=partialRectangle;connectable=0;fillColor=none;top=0;left=0;bottom=0;right=0;editable=1;overflow=hidden;whiteSpace=wrap;html=1;" parent="aUm_TQJ9ZBti03LkIsbj-80" vertex="1">
          <mxGeometry width="28.299999999999983" height="30" as="geometry">
            <mxRectangle width="28.299999999999983" height="30" as="alternateBounds" />
          </mxGeometry>
        </mxCell>
        <mxCell id="aUm_TQJ9ZBti03LkIsbj-82" value="region: timestamp" style="shape=partialRectangle;connectable=0;fillColor=none;top=0;left=0;bottom=0;right=0;align=left;spacingLeft=6;overflow=hidden;whiteSpace=wrap;html=1;" parent="aUm_TQJ9ZBti03LkIsbj-80" vertex="1">
          <mxGeometry x="28.299999999999983" width="233.70000000000002" height="30" as="geometry">
            <mxRectangle width="233.70000000000002" height="30" as="alternateBounds" />
          </mxGeometry>
        </mxCell>
        <mxCell id="aUm_TQJ9ZBti03LkIsbj-83" value="" style="shape=tableRow;horizontal=0;startSize=0;swimlaneHead=0;swimlaneBody=0;fillColor=none;collapsible=0;dropTarget=0;points=[[0,0.5],[1,0.5]];portConstraint=eastwest;top=0;left=0;right=0;bottom=0;" parent="aUm_TQJ9ZBti03LkIsbj-70" vertex="1">
          <mxGeometry y="150" width="262" height="30" as="geometry" />
        </mxCell>
        <mxCell id="aUm_TQJ9ZBti03LkIsbj-84" value="" style="shape=partialRectangle;connectable=0;fillColor=none;top=0;left=0;bottom=0;right=0;editable=1;overflow=hidden;whiteSpace=wrap;html=1;" parent="aUm_TQJ9ZBti03LkIsbj-83" vertex="1">
          <mxGeometry width="28.299999999999983" height="30" as="geometry">
            <mxRectangle width="28.299999999999983" height="30" as="alternateBounds" />
          </mxGeometry>
        </mxCell>
        <mxCell id="aUm_TQJ9ZBti03LkIsbj-85" value="provider: varchar(255)" style="shape=partialRectangle;connectable=0;fillColor=none;top=0;left=0;bottom=0;right=0;align=left;spacingLeft=6;overflow=hidden;whiteSpace=wrap;html=1;" parent="aUm_TQJ9ZBti03LkIsbj-83" vertex="1">
          <mxGeometry x="28.299999999999983" width="233.70000000000002" height="30" as="geometry">
            <mxRectangle width="233.70000000000002" height="30" as="alternateBounds" />
          </mxGeometry>
        </mxCell>
        <mxCell id="aUm_TQJ9ZBti03LkIsbj-86" value="" style="shape=tableRow;horizontal=0;startSize=0;swimlaneHead=0;swimlaneBody=0;fillColor=none;collapsible=0;dropTarget=0;points=[[0,0.5],[1,0.5]];portConstraint=eastwest;top=0;left=0;right=0;bottom=0;" parent="aUm_TQJ9ZBti03LkIsbj-70" vertex="1">
          <mxGeometry y="180" width="262" height="30" as="geometry" />
        </mxCell>
        <mxCell id="aUm_TQJ9ZBti03LkIsbj-87" value="" style="shape=partialRectangle;connectable=0;fillColor=none;top=0;left=0;bottom=0;right=0;editable=1;overflow=hidden;whiteSpace=wrap;html=1;" parent="aUm_TQJ9ZBti03LkIsbj-86" vertex="1">
          <mxGeometry width="28.299999999999983" height="30" as="geometry">
            <mxRectangle width="28.299999999999983" height="30" as="alternateBounds" />
          </mxGeometry>
        </mxCell>
        <mxCell id="aUm_TQJ9ZBti03LkIsbj-88" value="status: varchar(255)" style="shape=partialRectangle;connectable=0;fillColor=none;top=0;left=0;bottom=0;right=0;align=left;spacingLeft=6;overflow=hidden;whiteSpace=wrap;html=1;" parent="aUm_TQJ9ZBti03LkIsbj-86" vertex="1">
          <mxGeometry x="28.299999999999983" width="233.70000000000002" height="30" as="geometry">
            <mxRectangle width="233.70000000000002" height="30" as="alternateBounds" />
          </mxGeometry>
        </mxCell>
        <mxCell id="aUm_TQJ9ZBti03LkIsbj-92" value="" style="endArrow=none;html=1;rounded=0;entryX=0;entryY=0.5;entryDx=0;entryDy=0;exitX=0;exitY=0.5;exitDx=0;exitDy=0;" parent="1" source="aUm_TQJ9ZBti03LkIsbj-52" target="aUm_TQJ9ZBti03LkIsbj-29" edge="1">
          <mxGeometry width="50" height="50" relative="1" as="geometry">
            <mxPoint x="85" y="532" as="sourcePoint" />
            <mxPoint x="100" y="110" as="targetPoint" />
            <Array as="points">
              <mxPoint x="53" y="620" />
              <mxPoint x="47" y="370" />
            </Array>
          </mxGeometry>
        </mxCell>
        <mxCell id="aUm_TQJ9ZBti03LkIsbj-184" value="1" style="edgeLabel;html=1;align=center;verticalAlign=middle;resizable=0;points=[];" parent="aUm_TQJ9ZBti03LkIsbj-92" vertex="1" connectable="0">
          <mxGeometry x="0.9659" y="1" relative="1" as="geometry">
            <mxPoint x="4" y="-10" as="offset" />
          </mxGeometry>
        </mxCell>
        <mxCell id="aUm_TQJ9ZBti03LkIsbj-93" value="" style="endArrow=none;html=1;rounded=0;entryX=0;entryY=0.5;entryDx=0;entryDy=0;exitX=0;exitY=0.5;exitDx=0;exitDy=0;" parent="1" source="aUm_TQJ9ZBti03LkIsbj-74" target="aUm_TQJ9ZBti03LkIsbj-55" edge="1">
          <mxGeometry width="50" height="50" relative="1" as="geometry">
            <mxPoint x="134" y="377" as="sourcePoint" />
            <mxPoint x="83" y="556" as="targetPoint" />
            <Array as="points">
              <mxPoint x="90" y="114" />
              <mxPoint x="86" y="303" />
              <mxPoint x="88" y="650" />
            </Array>
          </mxGeometry>
        </mxCell>
        <mxCell id="aUm_TQJ9ZBti03LkIsbj-185" value="1" style="edgeLabel;html=1;align=center;verticalAlign=middle;resizable=0;points=[];" parent="aUm_TQJ9ZBti03LkIsbj-93" vertex="1" connectable="0">
          <mxGeometry x="-0.9565" y="-3" relative="1" as="geometry">
            <mxPoint x="6" y="-8" as="offset" />
          </mxGeometry>
        </mxCell>
        <mxCell id="aUm_TQJ9ZBti03LkIsbj-94" value="N" style="text;html=1;align=center;verticalAlign=middle;resizable=0;points=[];autosize=1;strokeColor=none;fillColor=none;" parent="1" vertex="1">
          <mxGeometry x="110" y="592" width="27" height="26" as="geometry" />
        </mxCell>
        <mxCell id="aUm_TQJ9ZBti03LkIsbj-95" value="N" style="text;html=1;align=center;verticalAlign=middle;resizable=0;points=[];autosize=1;strokeColor=none;fillColor=none;" parent="1" vertex="1">
          <mxGeometry x="110" y="625" width="27" height="26" as="geometry" />
        </mxCell>
        <mxCell id="xZxlKnpOTAj4BZ6l7p1P-1" value="stockRequest" style="shape=table;startSize=30;container=1;collapsible=1;childLayout=tableLayout;fixedRows=1;rowLines=0;fontStyle=1;align=center;resizeLast=1;html=1;" vertex="1" parent="1">
          <mxGeometry x="510" y="592" width="180" height="180" as="geometry">
            <mxRectangle x="510" y="592" width="110" height="30" as="alternateBounds" />
          </mxGeometry>
        </mxCell>
        <mxCell id="xZxlKnpOTAj4BZ6l7p1P-2" value="" style="shape=tableRow;horizontal=0;startSize=0;swimlaneHead=0;swimlaneBody=0;fillColor=none;collapsible=0;dropTarget=0;points=[[0,0.5],[1,0.5]];portConstraint=eastwest;top=0;left=0;right=0;bottom=1;" vertex="1" parent="xZxlKnpOTAj4BZ6l7p1P-1">
          <mxGeometry y="30" width="180" height="30" as="geometry" />
        </mxCell>
        <mxCell id="xZxlKnpOTAj4BZ6l7p1P-3" value="PK" style="shape=partialRectangle;connectable=0;fillColor=none;top=0;left=0;bottom=0;right=0;fontStyle=1;overflow=hidden;whiteSpace=wrap;html=1;" vertex="1" parent="xZxlKnpOTAj4BZ6l7p1P-2">
          <mxGeometry width="30" height="30" as="geometry">
            <mxRectangle width="30" height="30" as="alternateBounds" />
          </mxGeometry>
        </mxCell>
        <mxCell id="xZxlKnpOTAj4BZ6l7p1P-4" value="requestId: int" style="shape=partialRectangle;connectable=0;fillColor=none;top=0;left=0;bottom=0;right=0;align=left;spacingLeft=6;fontStyle=5;overflow=hidden;whiteSpace=wrap;html=1;" vertex="1" parent="xZxlKnpOTAj4BZ6l7p1P-2">
          <mxGeometry x="30" width="150" height="30" as="geometry">
            <mxRectangle width="150" height="30" as="alternateBounds" />
          </mxGeometry>
        </mxCell>
        <mxCell id="xZxlKnpOTAj4BZ6l7p1P-5" value="" style="shape=tableRow;horizontal=0;startSize=0;swimlaneHead=0;swimlaneBody=0;fillColor=none;collapsible=0;dropTarget=0;points=[[0,0.5],[1,0.5]];portConstraint=eastwest;top=0;left=0;right=0;bottom=0;" vertex="1" parent="xZxlKnpOTAj4BZ6l7p1P-1">
          <mxGeometry y="60" width="180" height="30" as="geometry" />
        </mxCell>
        <mxCell id="xZxlKnpOTAj4BZ6l7p1P-6" value="FK" style="shape=partialRectangle;connectable=0;fillColor=none;top=0;left=0;bottom=0;right=0;editable=1;overflow=hidden;whiteSpace=wrap;html=1;" vertex="1" parent="xZxlKnpOTAj4BZ6l7p1P-5">
          <mxGeometry width="30" height="30" as="geometry">
            <mxRectangle width="30" height="30" as="alternateBounds" />
          </mxGeometry>
        </mxCell>
        <mxCell id="xZxlKnpOTAj4BZ6l7p1P-7" value="userId: int" style="shape=partialRectangle;connectable=0;fillColor=none;top=0;left=0;bottom=0;right=0;align=left;spacingLeft=6;overflow=hidden;whiteSpace=wrap;html=1;" vertex="1" parent="xZxlKnpOTAj4BZ6l7p1P-5">
          <mxGeometry x="30" width="150" height="30" as="geometry">
            <mxRectangle width="150" height="30" as="alternateBounds" />
          </mxGeometry>
        </mxCell>
        <mxCell id="xZxlKnpOTAj4BZ6l7p1P-8" value="" style="shape=tableRow;horizontal=0;startSize=0;swimlaneHead=0;swimlaneBody=0;fillColor=none;collapsible=0;dropTarget=0;points=[[0,0.5],[1,0.5]];portConstraint=eastwest;top=0;left=0;right=0;bottom=0;" vertex="1" parent="xZxlKnpOTAj4BZ6l7p1P-1">
          <mxGeometry y="90" width="180" height="30" as="geometry" />
        </mxCell>
        <mxCell id="xZxlKnpOTAj4BZ6l7p1P-9" value="FK" style="shape=partialRectangle;connectable=0;fillColor=none;top=0;left=0;bottom=0;right=0;editable=1;overflow=hidden;whiteSpace=wrap;html=1;" vertex="1" parent="xZxlKnpOTAj4BZ6l7p1P-8">
          <mxGeometry width="30" height="30" as="geometry">
            <mxRectangle width="30" height="30" as="alternateBounds" />
          </mxGeometry>
        </mxCell>
        <mxCell id="xZxlKnpOTAj4BZ6l7p1P-10" value="stockListId: int" style="shape=partialRectangle;connectable=0;fillColor=none;top=0;left=0;bottom=0;right=0;align=left;spacingLeft=6;overflow=hidden;whiteSpace=wrap;html=1;" vertex="1" parent="xZxlKnpOTAj4BZ6l7p1P-8">
          <mxGeometry x="30" width="150" height="30" as="geometry">
            <mxRectangle width="150" height="30" as="alternateBounds" />
          </mxGeometry>
        </mxCell>
        <mxCell id="xZxlKnpOTAj4BZ6l7p1P-11" value="" style="shape=tableRow;horizontal=0;startSize=0;swimlaneHead=0;swimlaneBody=0;fillColor=none;collapsible=0;dropTarget=0;points=[[0,0.5],[1,0.5]];portConstraint=eastwest;top=0;left=0;right=0;bottom=0;" vertex="1" parent="xZxlKnpOTAj4BZ6l7p1P-1">
          <mxGeometry y="120" width="180" height="30" as="geometry" />
        </mxCell>
        <mxCell id="xZxlKnpOTAj4BZ6l7p1P-12" value="" style="shape=partialRectangle;connectable=0;fillColor=none;top=0;left=0;bottom=0;right=0;editable=1;overflow=hidden;whiteSpace=wrap;html=1;" vertex="1" parent="xZxlKnpOTAj4BZ6l7p1P-11">
          <mxGeometry width="30" height="30" as="geometry">
            <mxRectangle width="30" height="30" as="alternateBounds" />
          </mxGeometry>
        </mxCell>
        <mxCell id="xZxlKnpOTAj4BZ6l7p1P-13" value="requestedAt: timestamp" style="shape=partialRectangle;connectable=0;fillColor=none;top=0;left=0;bottom=0;right=0;align=left;spacingLeft=6;overflow=hidden;whiteSpace=wrap;html=1;" vertex="1" parent="xZxlKnpOTAj4BZ6l7p1P-11">
          <mxGeometry x="30" width="150" height="30" as="geometry">
            <mxRectangle width="150" height="30" as="alternateBounds" />
          </mxGeometry>
        </mxCell>
        <mxCell id="xZxlKnpOTAj4BZ6l7p1P-34" value="" style="shape=tableRow;horizontal=0;startSize=0;swimlaneHead=0;swimlaneBody=0;fillColor=none;collapsible=0;dropTarget=0;points=[[0,0.5],[1,0.5]];portConstraint=eastwest;top=0;left=0;right=0;bottom=0;" vertex="1" parent="xZxlKnpOTAj4BZ6l7p1P-1">
          <mxGeometry y="150" width="180" height="30" as="geometry" />
        </mxCell>
        <mxCell id="xZxlKnpOTAj4BZ6l7p1P-35" value="" style="shape=partialRectangle;connectable=0;fillColor=none;top=0;left=0;bottom=0;right=0;editable=1;overflow=hidden;" vertex="1" parent="xZxlKnpOTAj4BZ6l7p1P-34">
          <mxGeometry width="30" height="30" as="geometry">
            <mxRectangle width="30" height="30" as="alternateBounds" />
          </mxGeometry>
        </mxCell>
        <mxCell id="xZxlKnpOTAj4BZ6l7p1P-36" value="stockData: varchar(255)" style="shape=partialRectangle;connectable=0;fillColor=none;top=0;left=0;bottom=0;right=0;align=left;spacingLeft=6;overflow=hidden;" vertex="1" parent="xZxlKnpOTAj4BZ6l7p1P-34">
          <mxGeometry x="30" width="150" height="30" as="geometry">
            <mxRectangle width="150" height="30" as="alternateBounds" />
          </mxGeometry>
        </mxCell>
        <mxCell id="xZxlKnpOTAj4BZ6l7p1P-14" value="" style="endArrow=none;html=1;rounded=0;entryX=0.429;entryY=0.93;entryDx=0;entryDy=0;exitX=0;exitY=0.5;exitDx=0;exitDy=0;entryPerimeter=0;" edge="1" parent="1" source="xZxlKnpOTAj4BZ6l7p1P-5" target="aUm_TQJ9ZBti03LkIsbj-42">
          <mxGeometry width="50" height="50" relative="1" as="geometry">
            <mxPoint x="610" y="630" as="sourcePoint" />
            <mxPoint x="650" y="540" as="targetPoint" />
            <Array as="points">
              <mxPoint x="470" y="667" />
              <mxPoint x="470" y="550" />
              <mxPoint x="592" y="550" />
            </Array>
          </mxGeometry>
        </mxCell>
        <mxCell id="xZxlKnpOTAj4BZ6l7p1P-50" value="stockList" style="shape=table;startSize=30;container=1;collapsible=1;childLayout=tableLayout;fixedRows=1;rowLines=0;fontStyle=1;align=center;resizeLast=1;html=1;" vertex="1" parent="1">
          <mxGeometry x="460" y="900" width="180" height="150" as="geometry" />
        </mxCell>
        <mxCell id="xZxlKnpOTAj4BZ6l7p1P-51" value="" style="shape=tableRow;horizontal=0;startSize=0;swimlaneHead=0;swimlaneBody=0;fillColor=none;collapsible=0;dropTarget=0;points=[[0,0.5],[1,0.5]];portConstraint=eastwest;top=0;left=0;right=0;bottom=1;" vertex="1" parent="xZxlKnpOTAj4BZ6l7p1P-50">
          <mxGeometry y="30" width="180" height="30" as="geometry" />
        </mxCell>
        <mxCell id="xZxlKnpOTAj4BZ6l7p1P-52" value="PK" style="shape=partialRectangle;connectable=0;fillColor=none;top=0;left=0;bottom=0;right=0;fontStyle=1;overflow=hidden;whiteSpace=wrap;html=1;" vertex="1" parent="xZxlKnpOTAj4BZ6l7p1P-51">
          <mxGeometry width="30" height="30" as="geometry">
            <mxRectangle width="30" height="30" as="alternateBounds" />
          </mxGeometry>
        </mxCell>
        <mxCell id="xZxlKnpOTAj4BZ6l7p1P-53" value="stockListId: int" style="shape=partialRectangle;connectable=0;fillColor=none;top=0;left=0;bottom=0;right=0;align=left;spacingLeft=6;fontStyle=5;overflow=hidden;whiteSpace=wrap;html=1;" vertex="1" parent="xZxlKnpOTAj4BZ6l7p1P-51">
          <mxGeometry x="30" width="150" height="30" as="geometry">
            <mxRectangle width="150" height="30" as="alternateBounds" />
          </mxGeometry>
        </mxCell>
        <mxCell id="xZxlKnpOTAj4BZ6l7p1P-54" value="" style="shape=tableRow;horizontal=0;startSize=0;swimlaneHead=0;swimlaneBody=0;fillColor=none;collapsible=0;dropTarget=0;points=[[0,0.5],[1,0.5]];portConstraint=eastwest;top=0;left=0;right=0;bottom=0;" vertex="1" parent="xZxlKnpOTAj4BZ6l7p1P-50">
          <mxGeometry y="60" width="180" height="30" as="geometry" />
        </mxCell>
        <mxCell id="xZxlKnpOTAj4BZ6l7p1P-55" value="FK" style="shape=partialRectangle;connectable=0;fillColor=none;top=0;left=0;bottom=0;right=0;editable=1;overflow=hidden;whiteSpace=wrap;html=1;" vertex="1" parent="xZxlKnpOTAj4BZ6l7p1P-54">
          <mxGeometry width="30" height="30" as="geometry">
            <mxRectangle width="30" height="30" as="alternateBounds" />
          </mxGeometry>
        </mxCell>
        <mxCell id="xZxlKnpOTAj4BZ6l7p1P-56" value="requestId: int" style="shape=partialRectangle;connectable=0;fillColor=none;top=0;left=0;bottom=0;right=0;align=left;spacingLeft=6;overflow=hidden;whiteSpace=wrap;html=1;" vertex="1" parent="xZxlKnpOTAj4BZ6l7p1P-54">
          <mxGeometry x="30" width="150" height="30" as="geometry">
            <mxRectangle width="150" height="30" as="alternateBounds" />
          </mxGeometry>
        </mxCell>
        <mxCell id="xZxlKnpOTAj4BZ6l7p1P-57" value="" style="shape=tableRow;horizontal=0;startSize=0;swimlaneHead=0;swimlaneBody=0;fillColor=none;collapsible=0;dropTarget=0;points=[[0,0.5],[1,0.5]];portConstraint=eastwest;top=0;left=0;right=0;bottom=0;" vertex="1" parent="xZxlKnpOTAj4BZ6l7p1P-50">
          <mxGeometry y="90" width="180" height="30" as="geometry" />
        </mxCell>
        <mxCell id="xZxlKnpOTAj4BZ6l7p1P-58" value="" style="shape=partialRectangle;connectable=0;fillColor=none;top=0;left=0;bottom=0;right=0;editable=1;overflow=hidden;whiteSpace=wrap;html=1;" vertex="1" parent="xZxlKnpOTAj4BZ6l7p1P-57">
          <mxGeometry width="30" height="30" as="geometry">
            <mxRectangle width="30" height="30" as="alternateBounds" />
          </mxGeometry>
        </mxCell>
        <mxCell id="xZxlKnpOTAj4BZ6l7p1P-59" value="stockType: varchar(255)" style="shape=partialRectangle;connectable=0;fillColor=none;top=0;left=0;bottom=0;right=0;align=left;spacingLeft=6;overflow=hidden;whiteSpace=wrap;html=1;" vertex="1" parent="xZxlKnpOTAj4BZ6l7p1P-57">
          <mxGeometry x="30" width="150" height="30" as="geometry">
            <mxRectangle width="150" height="30" as="alternateBounds" />
          </mxGeometry>
        </mxCell>
        <mxCell id="xZxlKnpOTAj4BZ6l7p1P-60" value="" style="shape=tableRow;horizontal=0;startSize=0;swimlaneHead=0;swimlaneBody=0;fillColor=none;collapsible=0;dropTarget=0;points=[[0,0.5],[1,0.5]];portConstraint=eastwest;top=0;left=0;right=0;bottom=0;" vertex="1" parent="xZxlKnpOTAj4BZ6l7p1P-50">
          <mxGeometry y="120" width="180" height="30" as="geometry" />
        </mxCell>
        <mxCell id="xZxlKnpOTAj4BZ6l7p1P-61" value="" style="shape=partialRectangle;connectable=0;fillColor=none;top=0;left=0;bottom=0;right=0;editable=1;overflow=hidden;whiteSpace=wrap;html=1;" vertex="1" parent="xZxlKnpOTAj4BZ6l7p1P-60">
          <mxGeometry width="30" height="30" as="geometry">
            <mxRectangle width="30" height="30" as="alternateBounds" />
          </mxGeometry>
        </mxCell>
        <mxCell id="xZxlKnpOTAj4BZ6l7p1P-62" value="lastUpdated: timestamp" style="shape=partialRectangle;connectable=0;fillColor=none;top=0;left=0;bottom=0;right=0;align=left;spacingLeft=6;overflow=hidden;whiteSpace=wrap;html=1;" vertex="1" parent="xZxlKnpOTAj4BZ6l7p1P-60">
          <mxGeometry x="30" width="150" height="30" as="geometry">
            <mxRectangle width="150" height="30" as="alternateBounds" />
          </mxGeometry>
        </mxCell>
        <mxCell id="xZxlKnpOTAj4BZ6l7p1P-66" value="" style="endArrow=none;html=1;rounded=0;exitX=0.5;exitY=0;exitDx=0;exitDy=0;entryX=0;entryY=0.5;entryDx=0;entryDy=0;" edge="1" parent="1" source="xZxlKnpOTAj4BZ6l7p1P-50" target="xZxlKnpOTAj4BZ6l7p1P-8">
          <mxGeometry width="50" height="50" relative="1" as="geometry">
            <mxPoint x="620" y="860" as="sourcePoint" />
            <mxPoint x="480" y="670" as="targetPoint" />
            <Array as="points">
              <mxPoint x="550" y="820" />
              <mxPoint x="470" y="820" />
              <mxPoint x="470" y="697" />
            </Array>
          </mxGeometry>
        </mxCell>
        <mxCell id="xZxlKnpOTAj4BZ6l7p1P-67" value="N" style="text;html=1;align=center;verticalAlign=middle;resizable=0;points=[];autosize=1;strokeColor=none;fillColor=none;" vertex="1" parent="1">
          <mxGeometry x="485" y="668" width="30" height="30" as="geometry" />
        </mxCell>
        <mxCell id="xZxlKnpOTAj4BZ6l7p1P-68" value="N" style="text;html=1;align=center;verticalAlign=middle;resizable=0;points=[];autosize=1;strokeColor=none;fillColor=none;" vertex="1" parent="1">
          <mxGeometry x="485" y="628" width="30" height="30" as="geometry" />
        </mxCell>
        <mxCell id="xZxlKnpOTAj4BZ6l7p1P-69" value="1" style="text;html=1;align=center;verticalAlign=middle;resizable=0;points=[];autosize=1;strokeColor=none;fillColor=none;" vertex="1" parent="1">
          <mxGeometry x="585" y="498" width="30" height="30" as="geometry" />
        </mxCell>
        <mxCell id="xZxlKnpOTAj4BZ6l7p1P-70" value="1" style="text;html=1;align=center;verticalAlign=middle;resizable=0;points=[];autosize=1;strokeColor=none;fillColor=none;" vertex="1" parent="1">
          <mxGeometry x="555" y="878" width="30" height="30" as="geometry" />
        </mxCell>
      </root>
    </mxGraphModel>
  </diagram>
</mxfile>
